<?xml version="1.0" encoding="UTF-8"?>
<!DOCTYPE svg PUBLIC "-//W3C//DTD SVG 1.1//EN" "http://www.w3.org/Graphics/SVG/1.1/DTD/svg11.dtd">
<!-- Creator: CorelDRAW 2018 (64-Bit) -->
<svg xmlns="http://www.w3.org/2000/svg" xml:space="preserve" width="15.1625mm" height="20.3558mm" version="1.1" style="shape-rendering:geometricPrecision; text-rendering:geometricPrecision; image-rendering:optimizeQuality; fill-rule:evenodd; clip-rule:evenodd"
viewBox="0 0 1516.24 2035.57"
 xmlns:xlink="http://www.w3.org/1999/xlink">
 <defs>
  <style type="text/css">
   <![CDATA[
    .fil0 {fill:#727271}
   ]]>
  </style>
 </defs>
 <g id="Layer_x0020_1">
  <metadata id="CorelCorpID_0Corel-Layer"/>
  <g id="_1384157210624">
   <g>
    <path class="fil0" d="M414.07 2035.57c-8.27,-3.16 -16.56,-6.31 -26.72,-10.17 0,-333.27 0,-666.4 0,-1004.13 -129.47,46.08 -255.54,90.96 -387.07,137.78 0,-52.96 -1.1,-101.97 1.13,-150.83 0.35,-7.81 14.38,-18.28 24.15,-21.87 104.92,-38.43 209.62,-77.69 315.82,-112.31 37.93,-12.36 53.95,-30.29 47.05,-69.18 -1.73,-9.78 -0.26,-20.12 -0.26,-35.21 -129.57,46.49 -255.93,91.81 -387.89,139.14 0,-56.2 -1.08,-105.5 1.16,-154.65 0.34,-7.47 14.96,-17.29 24.84,-20.84 111.51,-40.13 223.33,-79.38 335.19,-118.51 15.75,-5.51 27.32,-10.44 27.19,-31.77 -1.27,-194.34 -1.32,-388.67 -1.73,-583.02 67.86,0 135.71,0 203.56,0 0.99,23.61 2.78,47.22 2.83,70.83 0.27,139.09 0.14,278.19 0.14,417.28 0,12.11 0,24.23 0,41.65 209.54,-75.7 413.81,-149.49 621.48,-224.52 0,52.09 1.53,99.57 -1.26,146.8 -0.57,9.56 -15.82,22.47 -26.98,26.57 -175.97,64.73 -352.34,128.39 -528.7,192.06 -71.34,25.76 -71.43,25.51 -61.1,109.77 205.48,-74.11 409.62,-147.73 617.88,-222.85 0,51.76 1.56,101.08 -1.44,150.14 -0.54,8.77 -18.78,19.66 -30.85,24.04 -177.32,64.32 -355.03,127.54 -532.51,191.39 -69.74,25.09 -56.15,15.66 -56.29,80.03 -0.57,257.84 -0.24,515.66 -0.24,773.49 0,13.35 0,26.7 0,40.04 253.54,-4.16 711.17,-273.18 713.58,-798.2 67.12,0 134.3,0 209.22,0 -6.59,59.82 -8.85,119.55 -20.22,177.48 -88.45,450.57 -439.64,777.49 -893.17,833.96 -6.51,0.8 -12.77,3.69 -19.14,5.6 -56.55,0.01 -113.09,0.01 -169.64,0.01l0 0z"/>
   </g>
   <g>
   </g>
   <g>
   </g>
   <g>
   </g>
   <g>
   </g>
   <g>
   </g>
   <g>
   </g>
   <g>
   </g>
   <g>
   </g>
   <g>
   </g>
   <g>
   </g>
   <g>
   </g>
   <g>
   </g>
   <g>
   </g>
   <g>
   </g>
   <g>
   </g>
  </g>
 </g>
</svg>
